Shiva (1989) DvdRip Telugu Movie - teluguppls

General

Format                           : Matroska
File size                        : 902 MiB
Duration                         : 2h 24mn
Overall bit rate                 : 871 Kbps


Video
ID                               : 1
Format                           : AVC
Format/Info                      : Advanced Video Codec
Format profile                   : Main@L2.1
Format settings, CABAC           : Yes
Format settings, ReFrames        : 2 frames
Codec ID                         : V_MPEG4/ISO/AVC
Duration                         : 2h 24mn
Bit rate                         : 419 Kbps
Width                            : 608 pixels
Height                           : 256 pixels
Display aspect ratio             : 1.891
Frame rate                       : 29.970 fps
Color space                      : YUV
Chroma subsampling               : 4:2:0
Bit depth                        : 8 bits
Scan type                        : Progressive
Bits/(Pixel*Frame)               : 0.090
Stream size                      : 420 MiB (47%)
Writing library                  : x264 core 79


Audio

Format                           : AC-3
Format/Info                      : Audio Coding 3
Duration                         : 2h 24mn
Bit rate mode                    : Constant
Bit rate                         : 448 Kbps
Channel(s)                       : 6 channels
Channel positions                : Front: L C R, Side: L R, LFE
Sampling rate                    : 48.0 KHz
Bit depth                        : 16 bits
Compression mode                 : Lossy
Stream size                      : 464 MiB (51%)
Language                         : Telugu


PLEASE SEEEEEEEEEEEEEEEEEEEEEDDDDDDDDDDDDDDDDDDDD.....................

POST A COMMENT.......................
